<svg width="260" height="56" viewBox="0 0 260 56" fill="none" xmlns="http://www.w3.org/2000/svg">
<path fill-rule="evenodd" clip-rule="evenodd" d="M21.9267 25.8071C21.3987 25.7914 21.0266 25.3509 21.0612 24.8265L21.1003 24.2348C21.1283 23.8108 21.4134 23.4503 21.7916 23.2839H30.2259C32.7588 23.2839 34.8122 21.2306 34.8122 18.6977C34.8122 16.1648 32.7588 14.1115 30.2259 14.1115H24.6993C21.3613 14.0612 17.5253 14.0209 15.7502 14.0053C15.2076 14.0005 14.7693 13.5767 14.7452 13.038L14.7299 12.6976C14.7045 12.1296 15.1482 11.6521 15.7205 11.6438C19.2024 11.5934 29.8345 11.501 30.7821 11.6269C31.8751 11.7722 32.9203 12.157 33.8392 12.7527C34.7581 13.3483 35.5271 14.1393 36.0883 15.0664C36.6496 15.9934 36.9886 17.0324 37.08 18.1055C37.1714 19.1786 37.0129 20.258 36.6161 21.2628C36.2194 22.2676 35.5949 23.1717 34.7894 23.9074C33.9838 24.643 33.0182 25.1911 31.9648 25.5106C31.0655 25.7834 24.5055 25.8835 21.9267 25.8071Z" fill="white"/>
<path fill-rule="evenodd" clip-rule="evenodd" d="M14.9381 33.6802C14.9522 33.2292 15.3056 32.8876 15.7514 32.8442L16.2872 32.7919C16.9279 32.7295 17.4944 33.2982 17.4916 33.9468C17.4882 34.7222 17.518 35.6584 17.5609 36.444L17.5609 36.5963C17.5609 36.854 17.5819 37.1069 17.6223 37.3532C17.6303 37.4481 17.6384 37.5358 17.6466 37.6151C17.6673 37.6615 17.6861 37.7037 17.7033 37.7422C18.2136 39.7524 20.0352 41.2395 22.2041 41.2395C24.7684 41.2395 26.8472 39.1606 26.8472 36.5963L26.8472 27.1719C26.9645 26.7634 27.3349 26.4647 27.7778 26.4582L28.1788 26.4523C28.7188 26.4443 29.1665 26.8757 29.1773 27.4195C29.2284 29.9982 29.3129 36.3659 29.1902 37.2912C29.045 38.3868 28.6601 39.4345 28.0644 40.3557C27.4688 41.2768 26.6778 42.0476 25.7508 42.6102C24.8238 43.1729 23.7848 43.5127 22.7116 43.6044C21.6385 43.696 20.5591 43.537 19.5543 43.1393C18.5495 42.7417 17.6454 42.1156 16.9098 41.3081C16.1741 40.5006 15.626 39.5326 15.3065 38.4767C15.043 37.6056 14.8926 35.1331 14.9381 33.6802Z" fill="white"/>
<rect x="21.0539" y="24.0481" width="2.29312" height="13.7587" rx="1.01916" fill="white"/>
<path d="M28.1521 17.4235C28.715 17.4235 29.1713 17.8798 29.1713 18.4426L29.1713 21.7319C29.1713 22.2948 28.715 22.751 28.1521 22.751L27.8883 22.751C27.3402 22.751 26.8902 22.3176 26.8698 21.7699L26.8335 20.7949C26.8132 20.2507 26.3686 19.8186 25.8241 19.8138L15.9131 19.7256C15.3538 19.7206 14.903 19.2658 14.903 18.7064L14.903 18.4426C14.903 17.8798 15.3593 17.4235 15.9222 17.4235L28.1521 17.4235Z" fill="white"/>
<path d="M61.2019 41.4992C59.3715 41.4992 57.8462 41.0222 56.6259 40.0682C55.4168 39.1141 54.5681 37.8273 54.08 36.2077L58.0403 35.2592C58.1624 35.9359 58.5174 36.5183 59.1053 37.0064C59.6932 37.4945 60.3422 37.7386 61.0522 37.7386C61.5181 37.7386 62.0118 37.6165 62.5331 37.3725C63.0545 37.1173 63.4428 36.7124 63.6979 36.1578C63.8532 35.8028 63.942 35.3812 63.9642 34.8931C63.9975 34.3939 64.0141 33.8171 64.0141 33.1626V17.0384H68.0743V33.1626C68.0743 33.9058 68.0687 34.5603 68.0576 35.1261C68.0576 35.6807 68.0022 36.2077 67.8912 36.7069C67.7914 37.195 67.5862 37.6997 67.2755 38.2211C66.621 39.3526 65.7668 40.1846 64.713 40.7171C63.6591 41.2385 62.4888 41.4992 61.2019 41.4992ZM79.1557 41.5158C77.8245 41.5158 76.7263 41.294 75.861 40.8502C74.9957 40.4065 74.3079 39.8407 73.7976 39.153C73.2873 38.4652 72.9102 37.733 72.6661 36.9565C72.4221 36.1799 72.2612 35.4478 72.1836 34.76C72.117 34.0611 72.0837 33.4954 72.0837 33.0627V23.0288H76.1439V31.6816C76.1439 32.2363 76.1827 32.863 76.2604 33.5619C76.338 34.2497 76.5155 34.9153 76.7928 35.5587C77.0813 36.191 77.5028 36.7124 78.0575 37.1229C78.6232 37.5333 79.3831 37.7386 80.3372 37.7386C80.8474 37.7386 81.3522 37.6554 81.8514 37.489C82.3506 37.3226 82.7999 37.0397 83.1992 36.6403C83.6097 36.2299 83.9369 35.6697 84.181 34.9597C84.425 34.2497 84.5471 33.3511 84.5471 32.264L86.9266 33.279C86.9266 34.8099 86.6271 36.1966 86.028 37.439C85.4401 38.6815 84.5693 39.6743 83.4156 40.4176C82.2618 41.1498 80.8419 41.5158 79.1557 41.5158ZM85.0296 41V35.4256H84.5471V23.0288H88.574V41H85.0296ZM99.5223 41.4992C97.3036 41.4992 95.501 41 94.1143 40.0016C92.7276 39.0032 91.8845 37.5999 91.585 35.7917L95.6785 35.1594C95.8892 36.0468 96.3551 36.7457 97.0762 37.256C97.7973 37.7663 98.7069 38.0214 99.8052 38.0214C100.77 38.0214 101.514 37.8329 102.035 37.4557C102.567 37.0674 102.834 36.5405 102.834 35.8749C102.834 35.4644 102.734 35.1372 102.534 34.8931C102.346 34.638 101.924 34.3939 101.269 34.161C100.615 33.928 99.611 33.634 98.2577 33.279C96.749 32.8797 95.5509 32.4526 94.6634 31.9978C93.7759 31.5318 93.1381 30.9827 92.7498 30.3504C92.3615 29.7181 92.1674 28.9526 92.1674 28.0541C92.1674 26.9337 92.4614 25.9574 93.0493 25.1254C93.6373 24.2934 94.4582 23.6556 95.5121 23.2118C96.5659 22.757 97.8084 22.5296 99.2394 22.5296C100.637 22.5296 101.874 22.7459 102.95 23.1786C104.037 23.6112 104.914 24.2269 105.579 25.0256C106.245 25.8243 106.655 26.7617 106.811 27.8378L102.717 28.5699C102.617 27.8045 102.268 27.1999 101.669 26.7562C101.081 26.3124 100.293 26.0628 99.306 26.0074C98.363 25.9519 97.6031 26.0961 97.0263 26.44C96.4494 26.7728 96.161 27.2443 96.161 27.8544C96.161 28.1983 96.2775 28.4923 96.5105 28.7363C96.7434 28.9804 97.2093 29.2244 97.9082 29.4685C98.6182 29.7125 99.6721 30.0121 101.07 30.367C102.501 30.7331 103.643 31.1547 104.498 31.6317C105.363 32.0976 105.984 32.6578 106.361 33.3123C106.75 33.9668 106.944 34.76 106.944 35.6918C106.944 37.5001 106.284 38.92 104.964 39.9517C103.655 40.9834 101.841 41.4992 99.5223 41.4992ZM120.456 41C119.269 41.2219 118.104 41.3162 116.962 41.2829C115.83 41.2607 114.815 41.0555 113.916 40.6672C113.018 40.2678 112.336 39.6411 111.87 38.7869C111.459 38.0103 111.243 37.2172 111.221 36.4074C111.199 35.5975 111.187 34.6823 111.187 33.6618V18.0368H115.181V33.4288C115.181 34.1499 115.187 34.7822 115.198 35.3258C115.22 35.8693 115.336 36.3131 115.547 36.657C115.946 37.3226 116.584 37.6942 117.461 37.7718C118.337 37.8495 119.336 37.8051 120.456 37.6387V41ZM107.926 26.1738V23.0288H120.456V26.1738H107.926ZM129.652 41V17.0384H139.552C139.785 17.0384 140.085 17.0495 140.451 17.0717C140.817 17.0828 141.155 17.1161 141.466 17.1715C142.853 17.3823 143.995 17.8427 144.894 18.5526C145.804 19.2626 146.475 20.1612 146.907 21.2483C147.351 22.3244 147.573 23.5225 147.573 24.8426C147.573 26.1516 147.351 27.3497 146.907 28.4368C146.464 29.5129 145.787 30.4059 144.877 31.1158C143.979 31.8258 142.842 32.2862 141.466 32.497C141.155 32.5413 140.812 32.5746 140.434 32.5968C140.068 32.619 139.774 32.6301 139.552 32.6301H133.662V41H129.652ZM133.662 28.8861H139.386C139.608 28.8861 139.857 28.875 140.135 28.8528C140.412 28.8306 140.667 28.7862 140.9 28.7197C141.566 28.5533 142.087 28.2593 142.464 27.8378C142.853 27.4162 143.124 26.9392 143.28 26.4067C143.446 25.8742 143.529 25.3529 143.529 24.8426C143.529 24.3323 143.446 23.8109 143.28 23.2784C143.124 22.7348 142.853 22.2523 142.464 21.8307C142.087 21.4092 141.566 21.1152 140.9 20.9488C140.667 20.8822 140.412 20.8434 140.135 20.8323C139.857 20.8101 139.608 20.799 139.386 20.799H133.662V28.8861ZM150.241 41V23.0288H153.785V27.4051L153.353 26.8394C153.575 26.2403 153.869 25.6967 154.235 25.2086C154.612 24.7094 155.061 24.299 155.582 23.9773C156.026 23.6778 156.514 23.4448 157.047 23.2784C157.59 23.1009 158.145 22.9955 158.711 22.9622C159.277 22.9179 159.826 22.9401 160.358 23.0288V26.7728C159.826 26.6175 159.21 26.5676 158.511 26.623C157.823 26.6785 157.202 26.8726 156.647 27.2054C156.093 27.505 155.638 27.8877 155.283 28.3536C154.939 28.8195 154.684 29.352 154.517 29.951C154.351 30.539 154.268 31.1769 154.268 31.8646V41H150.241ZM170.48 41.4992C168.683 41.4992 167.113 41.0943 165.771 40.2845C164.429 39.4747 163.386 38.3598 162.643 36.9398C161.911 35.5088 161.545 33.867 161.545 32.0144C161.545 30.1285 161.922 28.4756 162.676 27.0557C163.43 25.6357 164.479 24.5264 165.821 23.7277C167.163 22.929 168.716 22.5296 170.48 22.5296C172.288 22.5296 173.864 22.9345 175.206 23.7443C176.548 24.5541 177.591 25.6746 178.334 27.1056C179.078 28.5255 179.449 30.1618 179.449 32.0144C179.449 33.8781 179.072 35.5254 178.318 36.9565C177.574 38.3764 176.532 39.4913 175.189 40.3011C173.847 41.0998 172.277 41.4992 170.48 41.4992ZM170.48 37.7386C172.078 37.7386 173.265 37.2061 174.041 36.1411C174.818 35.0762 175.206 33.7006 175.206 32.0144C175.206 30.2727 174.812 28.8861 174.025 27.8544C173.237 26.8116 172.055 26.2902 170.48 26.2902C169.404 26.2902 168.517 26.5343 167.818 27.0224C167.13 27.4994 166.62 28.1706 166.287 29.0358C165.954 29.89 165.788 30.8829 165.788 32.0144C165.788 33.7561 166.182 35.1483 166.969 36.191C167.768 37.2227 168.938 37.7386 170.48 37.7386ZM179.787 48.9872V45.2266H180.636C181.612 45.2266 182.306 44.9991 182.716 44.5443C183.127 44.0895 183.332 43.4183 183.332 42.5309V23.0288H187.325V44.328C187.325 45.7812 186.898 46.9183 186.044 47.7392C185.201 48.5712 184.025 48.9872 182.516 48.9872H179.787ZM183.332 20.2998V16.6224H187.325V20.2998H183.332ZM199.542 41.4992C197.723 41.4992 196.125 41.1054 194.75 40.3178C193.374 39.5301 192.298 38.4374 191.521 37.0397C190.756 35.6419 190.373 34.0334 190.373 32.2141C190.373 30.2506 190.75 28.5477 191.505 27.1056C192.259 25.6524 193.308 24.5264 194.65 23.7277C195.992 22.929 197.545 22.5296 199.309 22.5296C201.173 22.5296 202.753 22.9678 204.051 23.8442C205.36 24.7094 206.331 25.9353 206.963 27.5216C207.596 29.1079 207.834 30.9772 207.679 33.1293H203.702V31.665C203.691 29.7125 203.347 28.287 202.67 27.3885C201.994 26.4899 200.929 26.0406 199.475 26.0406C197.834 26.0406 196.613 26.5509 195.815 27.5715C195.016 28.581 194.617 30.062 194.617 32.0144C194.617 33.8337 195.016 35.2426 195.815 36.241C196.613 37.2394 197.778 37.7386 199.309 37.7386C200.296 37.7386 201.145 37.5222 201.855 37.0896C202.576 36.6459 203.131 36.008 203.519 35.176L207.479 36.3741C206.791 37.9937 205.726 39.2528 204.284 40.1514C202.853 41.0499 201.273 41.4992 199.542 41.4992ZM193.352 33.1293V30.1008H205.715V33.1293H193.352ZM218.53 41.4992C216.678 41.4992 215.097 41.0887 213.788 40.2678C212.479 39.4358 211.475 38.3043 210.776 36.8733C210.088 35.4422 209.739 33.8226 209.728 32.0144C209.739 30.1729 210.099 28.5422 210.809 27.1222C211.53 25.6912 212.551 24.5708 213.871 23.761C215.191 22.9401 216.761 22.5296 218.58 22.5296C220.621 22.5296 222.346 23.0454 223.755 24.0771C225.175 25.0977 226.101 26.4955 226.534 28.2704L222.541 29.352C222.23 28.3869 221.714 27.6381 220.993 27.1056C220.272 26.562 219.451 26.2902 218.53 26.2902C217.488 26.2902 216.628 26.5398 215.951 27.039C215.274 27.5271 214.775 28.2038 214.453 29.0691C214.132 29.9344 213.971 30.9162 213.971 32.0144C213.971 33.7228 214.354 35.1039 215.119 36.1578C215.885 37.2116 217.022 37.7386 218.53 37.7386C219.595 37.7386 220.433 37.4945 221.043 37.0064C221.664 36.5183 222.13 35.8139 222.441 34.8931L226.534 35.8083C225.979 37.6387 225.009 39.0476 223.622 40.0349C222.235 41.0111 220.538 41.4992 218.53 41.4992ZM239.736 41C238.549 41.2219 237.384 41.3162 236.242 41.2829C235.11 41.2607 234.095 41.0555 233.197 40.6672C232.298 40.2678 231.616 39.6411 231.15 38.7869C230.739 38.0103 230.523 37.2172 230.501 36.4074C230.479 35.5975 230.468 34.6823 230.468 33.6618V18.0368H234.461V33.4288C234.461 34.1499 234.467 34.7822 234.478 35.3258C234.5 35.8693 234.617 36.3131 234.827 36.657C235.227 37.3226 235.865 37.6942 236.741 37.7718C237.617 37.8495 238.616 37.8051 239.736 37.6387V41ZM227.206 26.1738V23.0288H239.736V26.1738H227.206ZM249.874 41.4992C247.655 41.4992 245.852 41 244.466 40.0016C243.079 39.0032 242.236 37.5999 241.937 35.7917L246.03 35.1594C246.241 36.0468 246.707 36.7457 247.428 37.256C248.149 37.7663 249.058 38.0214 250.157 38.0214C251.122 38.0214 251.865 37.8329 252.386 37.4557C252.919 37.0674 253.185 36.5405 253.185 35.8749C253.185 35.4644 253.085 35.1372 252.886 34.8931C252.697 34.638 252.275 34.3939 251.621 34.161C250.966 33.928 249.963 33.634 248.609 33.279C247.1 32.8797 245.902 32.4526 245.015 31.9978C244.127 31.5318 243.49 30.9827 243.101 30.3504C242.713 29.7181 242.519 28.9526 242.519 28.0541C242.519 26.9337 242.813 25.9574 243.401 25.1254C243.989 24.2934 244.81 23.6556 245.864 23.2118C246.917 22.757 248.16 22.5296 249.591 22.5296C250.989 22.5296 252.226 22.7459 253.302 23.1786C254.389 23.6112 255.265 24.2269 255.931 25.0256C256.596 25.8243 257.007 26.7617 257.162 27.8378L253.069 28.5699C252.969 27.8045 252.619 27.1999 252.02 26.7562C251.432 26.3124 250.645 26.0628 249.657 26.0074C248.715 25.9519 247.955 26.0961 247.378 26.44C246.801 26.7728 246.513 27.2443 246.513 27.8544C246.513 28.1983 246.629 28.4923 246.862 28.7363C247.095 28.9804 247.561 29.2244 248.26 29.4685C248.97 29.7125 250.024 30.0121 251.421 30.367C252.852 30.7331 253.995 31.1547 254.849 31.6317C255.714 32.0976 256.336 32.6578 256.713 33.3123C257.101 33.9668 257.295 34.76 257.295 35.6918C257.295 37.5001 256.635 38.92 255.315 39.9517C254.006 40.9834 252.192 41.4992 249.874 41.4992Z" fill="white"/>
</svg>
